<mxfile host="app.diagrams.net" modified="2022-01-19T13:20:08.281Z" agent="5.0 (Windows NT 10.0; Win64; x64) AppleWebKit/537.36 (KHTML, like Gecko) Chrome/97.0.4692.71 Safari/537.36" etag="ZFYZ4ZqO_3zewjIkyXzB" version="16.3.0" type="github">
  <diagram id="C5RBs43oDa-KdzZeNtuy" name="Page-1">
    <mxGraphModel dx="782" dy="428" grid="1" gridSize="10" guides="1" tooltips="1" connect="1" arrows="1" fold="1" page="1" pageScale="1" pageWidth="827" pageHeight="1169" math="0" shadow="0">
      <root>
        <mxCell id="WIyWlLk6GJQsqaUBKTNV-0" />
        <mxCell id="WIyWlLk6GJQsqaUBKTNV-1" parent="WIyWlLk6GJQsqaUBKTNV-0" />
        <mxCell id="bEONo6mtb3YG_DYwx1t2-2" value="" style="whiteSpace=wrap;html=1;aspect=fixed;fillColor=#fad7ac;strokeColor=#b46504;" vertex="1" parent="WIyWlLk6GJQsqaUBKTNV-1">
          <mxGeometry x="200" y="130" width="410" height="410" as="geometry" />
        </mxCell>
        <mxCell id="bEONo6mtb3YG_DYwx1t2-4" value="" style="endArrow=none;html=1;rounded=0;" edge="1" parent="WIyWlLk6GJQsqaUBKTNV-1">
          <mxGeometry width="50" height="50" relative="1" as="geometry">
            <mxPoint x="200" y="160" as="sourcePoint" />
            <mxPoint x="610" y="160" as="targetPoint" />
          </mxGeometry>
        </mxCell>
        <mxCell id="bEONo6mtb3YG_DYwx1t2-8" value="" style="edgeStyle=none;rounded=0;orthogonalLoop=1;jettySize=auto;html=1;" edge="1" parent="WIyWlLk6GJQsqaUBKTNV-1" source="bEONo6mtb3YG_DYwx1t2-5" target="bEONo6mtb3YG_DYwx1t2-6">
          <mxGeometry relative="1" as="geometry" />
        </mxCell>
        <mxCell id="bEONo6mtb3YG_DYwx1t2-5" value="BaÅŸla" style="ellipse;whiteSpace=wrap;html=1;" vertex="1" parent="WIyWlLk6GJQsqaUBKTNV-1">
          <mxGeometry x="210" y="170" width="60" height="20" as="geometry" />
        </mxCell>
        <mxCell id="bEONo6mtb3YG_DYwx1t2-12" value="" style="edgeStyle=none;rounded=0;orthogonalLoop=1;jettySize=auto;html=1;" edge="1" parent="WIyWlLk6GJQsqaUBKTNV-1" source="bEONo6mtb3YG_DYwx1t2-6" target="bEONo6mtb3YG_DYwx1t2-10">
          <mxGeometry relative="1" as="geometry" />
        </mxCell>
        <mxCell id="bEONo6mtb3YG_DYwx1t2-6" value="ad, soyad, islem" style="rounded=0;whiteSpace=wrap;html=1;" vertex="1" parent="WIyWlLk6GJQsqaUBKTNV-1">
          <mxGeometry x="210" y="200" width="60" height="30" as="geometry" />
        </mxCell>
        <mxCell id="bEONo6mtb3YG_DYwx1t2-15" value="" style="edgeStyle=none;rounded=0;orthogonalLoop=1;jettySize=auto;html=1;" edge="1" parent="WIyWlLk6GJQsqaUBKTNV-1" source="bEONo6mtb3YG_DYwx1t2-10" target="bEONo6mtb3YG_DYwx1t2-14">
          <mxGeometry relative="1" as="geometry" />
        </mxCell>
        <mxCell id="bEONo6mtb3YG_DYwx1t2-34" value="" style="edgeStyle=none;rounded=0;orthogonalLoop=1;jettySize=auto;html=1;" edge="1" parent="WIyWlLk6GJQsqaUBKTNV-1" source="bEONo6mtb3YG_DYwx1t2-10" target="bEONo6mtb3YG_DYwx1t2-24">
          <mxGeometry relative="1" as="geometry" />
        </mxCell>
        <mxCell id="bEONo6mtb3YG_DYwx1t2-10" value="&lt;font style=&quot;font-size: 9px&quot;&gt;case1:&amp;nbsp;&lt;br&gt;hasta&lt;/font&gt;" style="rhombus;whiteSpace=wrap;html=1;" vertex="1" parent="WIyWlLk6GJQsqaUBKTNV-1">
          <mxGeometry x="215" y="240" width="50" height="50" as="geometry" />
        </mxCell>
        <mxCell id="bEONo6mtb3YG_DYwx1t2-17" value="" style="edgeStyle=none;rounded=0;orthogonalLoop=1;jettySize=auto;html=1;" edge="1" parent="WIyWlLk6GJQsqaUBKTNV-1" source="bEONo6mtb3YG_DYwx1t2-14" target="bEONo6mtb3YG_DYwx1t2-16">
          <mxGeometry relative="1" as="geometry" />
        </mxCell>
        <mxCell id="bEONo6mtb3YG_DYwx1t2-35" value="" style="edgeStyle=none;rounded=0;orthogonalLoop=1;jettySize=auto;html=1;" edge="1" parent="WIyWlLk6GJQsqaUBKTNV-1" source="bEONo6mtb3YG_DYwx1t2-14" target="bEONo6mtb3YG_DYwx1t2-26">
          <mxGeometry relative="1" as="geometry" />
        </mxCell>
        <mxCell id="bEONo6mtb3YG_DYwx1t2-14" value="&lt;font style=&quot;font-size: 9px&quot;&gt;case2:&lt;br&gt;doktor&lt;/font&gt;" style="rhombus;whiteSpace=wrap;html=1;" vertex="1" parent="WIyWlLk6GJQsqaUBKTNV-1">
          <mxGeometry x="215" y="300" width="50" height="50" as="geometry" />
        </mxCell>
        <mxCell id="bEONo6mtb3YG_DYwx1t2-20" value="" style="edgeStyle=none;rounded=0;orthogonalLoop=1;jettySize=auto;html=1;" edge="1" parent="WIyWlLk6GJQsqaUBKTNV-1" source="bEONo6mtb3YG_DYwx1t2-16" target="bEONo6mtb3YG_DYwx1t2-18">
          <mxGeometry relative="1" as="geometry" />
        </mxCell>
        <mxCell id="bEONo6mtb3YG_DYwx1t2-38" value="" style="edgeStyle=none;rounded=0;orthogonalLoop=1;jettySize=auto;html=1;" edge="1" parent="WIyWlLk6GJQsqaUBKTNV-1" source="bEONo6mtb3YG_DYwx1t2-16" target="bEONo6mtb3YG_DYwx1t2-27">
          <mxGeometry relative="1" as="geometry" />
        </mxCell>
        <mxCell id="bEONo6mtb3YG_DYwx1t2-16" value="&lt;font style=&quot;font-size: 9px&quot;&gt;case3:&lt;br&gt;astroloji&lt;/font&gt;" style="rhombus;whiteSpace=wrap;html=1;" vertex="1" parent="WIyWlLk6GJQsqaUBKTNV-1">
          <mxGeometry x="215" y="360" width="55" height="50" as="geometry" />
        </mxCell>
        <mxCell id="bEONo6mtb3YG_DYwx1t2-23" value="" style="edgeStyle=none;rounded=0;orthogonalLoop=1;jettySize=auto;html=1;" edge="1" parent="WIyWlLk6GJQsqaUBKTNV-1" source="bEONo6mtb3YG_DYwx1t2-18" target="bEONo6mtb3YG_DYwx1t2-21">
          <mxGeometry relative="1" as="geometry" />
        </mxCell>
        <mxCell id="bEONo6mtb3YG_DYwx1t2-40" value="" style="edgeStyle=none;rounded=0;orthogonalLoop=1;jettySize=auto;html=1;" edge="1" parent="WIyWlLk6GJQsqaUBKTNV-1" source="bEONo6mtb3YG_DYwx1t2-18" target="bEONo6mtb3YG_DYwx1t2-39">
          <mxGeometry relative="1" as="geometry" />
        </mxCell>
        <mxCell id="bEONo6mtb3YG_DYwx1t2-18" value="&lt;font style=&quot;font-size: 7px&quot;&gt;case4: dogal&lt;br&gt;Tedavi&lt;/font&gt;" style="rhombus;whiteSpace=wrap;html=1;" vertex="1" parent="WIyWlLk6GJQsqaUBKTNV-1">
          <mxGeometry x="215" y="420" width="55" height="50" as="geometry" />
        </mxCell>
        <mxCell id="bEONo6mtb3YG_DYwx1t2-19" style="edgeStyle=none;rounded=0;orthogonalLoop=1;jettySize=auto;html=1;exitX=1;exitY=0;exitDx=0;exitDy=0;" edge="1" parent="WIyWlLk6GJQsqaUBKTNV-1" source="bEONo6mtb3YG_DYwx1t2-18" target="bEONo6mtb3YG_DYwx1t2-18">
          <mxGeometry relative="1" as="geometry" />
        </mxCell>
        <mxCell id="bEONo6mtb3YG_DYwx1t2-21" value="default" style="rhombus;whiteSpace=wrap;html=1;" vertex="1" parent="WIyWlLk6GJQsqaUBKTNV-1">
          <mxGeometry x="215" y="480" width="50" height="50" as="geometry" />
        </mxCell>
        <mxCell id="bEONo6mtb3YG_DYwx1t2-22" style="edgeStyle=none;rounded=0;orthogonalLoop=1;jettySize=auto;html=1;exitX=1;exitY=0;exitDx=0;exitDy=0;" edge="1" parent="WIyWlLk6GJQsqaUBKTNV-1" source="bEONo6mtb3YG_DYwx1t2-21" target="bEONo6mtb3YG_DYwx1t2-21">
          <mxGeometry relative="1" as="geometry" />
        </mxCell>
        <mxCell id="bEONo6mtb3YG_DYwx1t2-24" value="&lt;font style=&quot;font-size: 9px&quot;&gt;randevu al, sonuclari gor&lt;/font&gt;" style="rounded=0;whiteSpace=wrap;html=1;" vertex="1" parent="WIyWlLk6GJQsqaUBKTNV-1">
          <mxGeometry x="300" y="245" width="110" height="40" as="geometry" />
        </mxCell>
        <mxCell id="bEONo6mtb3YG_DYwx1t2-26" value="&lt;font style=&quot;font-size: 9px&quot;&gt;kullanici adi, parola, tedaviSec&lt;/font&gt;" style="rounded=0;whiteSpace=wrap;html=1;" vertex="1" parent="WIyWlLk6GJQsqaUBKTNV-1">
          <mxGeometry x="300" y="305" width="110" height="40" as="geometry" />
        </mxCell>
        <mxCell id="bEONo6mtb3YG_DYwx1t2-27" value="&lt;font size=&quot;1&quot;&gt;&lt;span style=&quot;font-size: 9px&quot;&gt;burc hesaplama, burclar ve hastaliklari, pozitif gun hesaplayici&lt;/span&gt;&lt;/font&gt;" style="rounded=0;whiteSpace=wrap;html=1;" vertex="1" parent="WIyWlLk6GJQsqaUBKTNV-1">
          <mxGeometry x="300" y="365" width="110" height="45" as="geometry" />
        </mxCell>
        <mxCell id="bEONo6mtb3YG_DYwx1t2-65" value="" style="edgeStyle=none;rounded=0;orthogonalLoop=1;jettySize=auto;html=1;fontSize=12;" edge="1" parent="WIyWlLk6GJQsqaUBKTNV-1" source="bEONo6mtb3YG_DYwx1t2-39" target="bEONo6mtb3YG_DYwx1t2-64">
          <mxGeometry relative="1" as="geometry" />
        </mxCell>
        <mxCell id="bEONo6mtb3YG_DYwx1t2-39" value="&lt;font style=&quot;font-size: 9px&quot;&gt;uyari&lt;/font&gt;" style="rounded=0;whiteSpace=wrap;html=1;" vertex="1" parent="WIyWlLk6GJQsqaUBKTNV-1">
          <mxGeometry x="300" y="426.25" width="110" height="37.5" as="geometry" />
        </mxCell>
        <mxCell id="bEONo6mtb3YG_DYwx1t2-41" value="&lt;font style=&quot;font-size: 12px&quot;&gt;Son&lt;/font&gt;" style="ellipse;whiteSpace=wrap;html=1;fontSize=9;" vertex="1" parent="WIyWlLk6GJQsqaUBKTNV-1">
          <mxGeometry x="440" y="480" width="100" height="40" as="geometry" />
        </mxCell>
        <mxCell id="bEONo6mtb3YG_DYwx1t2-47" value="" style="endArrow=classic;html=1;rounded=0;fontSize=12;" edge="1" parent="WIyWlLk6GJQsqaUBKTNV-1">
          <mxGeometry width="50" height="50" relative="1" as="geometry">
            <mxPoint x="410" y="270" as="sourcePoint" />
            <mxPoint x="480" y="429" as="targetPoint" />
            <Array as="points">
              <mxPoint x="480" y="270" />
              <mxPoint x="480" y="400" />
            </Array>
          </mxGeometry>
        </mxCell>
        <mxCell id="bEONo6mtb3YG_DYwx1t2-48" value="" style="endArrow=classic;html=1;rounded=0;fontSize=12;" edge="1" parent="WIyWlLk6GJQsqaUBKTNV-1">
          <mxGeometry width="50" height="50" relative="1" as="geometry">
            <mxPoint x="410" y="330" as="sourcePoint" />
            <mxPoint x="480" y="330" as="targetPoint" />
          </mxGeometry>
        </mxCell>
        <mxCell id="bEONo6mtb3YG_DYwx1t2-49" value="" style="endArrow=classic;html=1;rounded=0;fontSize=12;" edge="1" parent="WIyWlLk6GJQsqaUBKTNV-1">
          <mxGeometry width="50" height="50" relative="1" as="geometry">
            <mxPoint x="410" y="390" as="sourcePoint" />
            <mxPoint x="480" y="390" as="targetPoint" />
          </mxGeometry>
        </mxCell>
        <mxCell id="bEONo6mtb3YG_DYwx1t2-51" value="" style="endArrow=classic;html=1;rounded=0;fontSize=12;exitX=1;exitY=0.5;exitDx=0;exitDy=0;entryX=0.017;entryY=0.667;entryDx=0;entryDy=0;entryPerimeter=0;" edge="1" parent="WIyWlLk6GJQsqaUBKTNV-1" source="bEONo6mtb3YG_DYwx1t2-21" target="bEONo6mtb3YG_DYwx1t2-41">
          <mxGeometry width="50" height="50" relative="1" as="geometry">
            <mxPoint x="280" y="513" as="sourcePoint" />
            <mxPoint x="440" y="505" as="targetPoint" />
          </mxGeometry>
        </mxCell>
        <mxCell id="bEONo6mtb3YG_DYwx1t2-52" value="BirthMark" style="text;html=1;strokeColor=none;fillColor=none;align=center;verticalAlign=middle;whiteSpace=wrap;rounded=0;fontSize=12;" vertex="1" parent="WIyWlLk6GJQsqaUBKTNV-1">
          <mxGeometry x="354" y="130" width="60" height="30" as="geometry" />
        </mxCell>
        <mxCell id="bEONo6mtb3YG_DYwx1t2-53" value="&lt;div&gt;&lt;span&gt;+ doktorSec : int&lt;/span&gt;&lt;/div&gt;+ saat : int" style="whiteSpace=wrap;html=1;aspect=fixed;fontSize=12;align=left;fillColor=#dae8fc;strokeColor=#6c8ebf;" vertex="1" parent="WIyWlLk6GJQsqaUBKTNV-1">
          <mxGeometry x="40" y="200" width="120" height="120" as="geometry" />
        </mxCell>
        <mxCell id="bEONo6mtb3YG_DYwx1t2-54" value="&amp;nbsp; &amp;nbsp;+adet : int" style="whiteSpace=wrap;html=1;aspect=fixed;fontSize=12;align=left;fillColor=#e1d5e7;strokeColor=#9673a6;" vertex="1" parent="WIyWlLk6GJQsqaUBKTNV-1">
          <mxGeometry x="640" y="200" width="125" height="125" as="geometry" />
        </mxCell>
        <mxCell id="bEONo6mtb3YG_DYwx1t2-55" value="" style="whiteSpace=wrap;html=1;aspect=fixed;fontSize=12;fillColor=#b0e3e6;strokeColor=#0e8088;" vertex="1" parent="WIyWlLk6GJQsqaUBKTNV-1">
          <mxGeometry x="640" y="360" width="130" height="130" as="geometry" />
        </mxCell>
        <mxCell id="bEONo6mtb3YG_DYwx1t2-56" value="" style="endArrow=none;html=1;rounded=0;fontSize=12;entryX=1;entryY=0.25;entryDx=0;entryDy=0;" edge="1" parent="WIyWlLk6GJQsqaUBKTNV-1" target="bEONo6mtb3YG_DYwx1t2-53">
          <mxGeometry width="50" height="50" relative="1" as="geometry">
            <mxPoint x="40" y="230" as="sourcePoint" />
            <mxPoint x="90" y="180" as="targetPoint" />
          </mxGeometry>
        </mxCell>
        <mxCell id="bEONo6mtb3YG_DYwx1t2-57" value="Hasta" style="text;html=1;strokeColor=none;fillColor=none;align=center;verticalAlign=middle;whiteSpace=wrap;rounded=0;fontSize=12;" vertex="1" parent="WIyWlLk6GJQsqaUBKTNV-1">
          <mxGeometry x="70" y="200" width="60" height="30" as="geometry" />
        </mxCell>
        <mxCell id="bEONo6mtb3YG_DYwx1t2-58" value="" style="endArrow=none;html=1;rounded=0;fontSize=12;entryX=1;entryY=0.25;entryDx=0;entryDy=0;" edge="1" parent="WIyWlLk6GJQsqaUBKTNV-1" target="bEONo6mtb3YG_DYwx1t2-54">
          <mxGeometry width="50" height="50" relative="1" as="geometry">
            <mxPoint x="640" y="230" as="sourcePoint" />
            <mxPoint x="690" y="180" as="targetPoint" />
          </mxGeometry>
        </mxCell>
        <mxCell id="bEONo6mtb3YG_DYwx1t2-59" value="Astroloji" style="text;html=1;strokeColor=none;fillColor=none;align=center;verticalAlign=middle;whiteSpace=wrap;rounded=0;fontSize=12;" vertex="1" parent="WIyWlLk6GJQsqaUBKTNV-1">
          <mxGeometry x="670" y="200" width="60" height="30" as="geometry" />
        </mxCell>
        <mxCell id="bEONo6mtb3YG_DYwx1t2-61" value="" style="endArrow=none;html=1;rounded=0;fontSize=12;entryX=1;entryY=0.25;entryDx=0;entryDy=0;" edge="1" parent="WIyWlLk6GJQsqaUBKTNV-1" target="bEONo6mtb3YG_DYwx1t2-55">
          <mxGeometry width="50" height="50" relative="1" as="geometry">
            <mxPoint x="640" y="393" as="sourcePoint" />
            <mxPoint x="690" y="345" as="targetPoint" />
          </mxGeometry>
        </mxCell>
        <mxCell id="bEONo6mtb3YG_DYwx1t2-62" value="DogalTedavi" style="text;html=1;strokeColor=none;fillColor=none;align=center;verticalAlign=middle;whiteSpace=wrap;rounded=0;fontSize=12;" vertex="1" parent="WIyWlLk6GJQsqaUBKTNV-1">
          <mxGeometry x="675" y="365" width="65" height="30" as="geometry" />
        </mxCell>
        <mxCell id="bEONo6mtb3YG_DYwx1t2-63" value="+uyari : String" style="text;html=1;strokeColor=none;fillColor=none;align=center;verticalAlign=middle;whiteSpace=wrap;rounded=0;fontSize=12;" vertex="1" parent="WIyWlLk6GJQsqaUBKTNV-1">
          <mxGeometry x="647.5" y="410" width="82.5" height="30" as="geometry" />
        </mxCell>
        <mxCell id="bEONo6mtb3YG_DYwx1t2-67" value="" style="edgeStyle=none;rounded=0;orthogonalLoop=1;jettySize=auto;html=1;fontSize=12;" edge="1" parent="WIyWlLk6GJQsqaUBKTNV-1" source="bEONo6mtb3YG_DYwx1t2-64" target="bEONo6mtb3YG_DYwx1t2-41">
          <mxGeometry relative="1" as="geometry" />
        </mxCell>
        <mxCell id="bEONo6mtb3YG_DYwx1t2-64" value="break" style="rounded=0;whiteSpace=wrap;html=1;fontSize=12;" vertex="1" parent="WIyWlLk6GJQsqaUBKTNV-1">
          <mxGeometry x="440" y="430" width="100" height="36.25" as="geometry" />
        </mxCell>
        <mxCell id="bEONo6mtb3YG_DYwx1t2-71" value="" style="endArrow=classic;html=1;rounded=0;fontSize=12;entryX=1;entryY=0.367;entryDx=0;entryDy=0;entryPerimeter=0;" edge="1" parent="WIyWlLk6GJQsqaUBKTNV-1" target="bEONo6mtb3YG_DYwx1t2-2">
          <mxGeometry width="50" height="50" relative="1" as="geometry">
            <mxPoint x="640" y="280" as="sourcePoint" />
            <mxPoint x="690" y="230" as="targetPoint" />
          </mxGeometry>
        </mxCell>
        <mxCell id="bEONo6mtb3YG_DYwx1t2-73" value="" style="endArrow=classic;html=1;rounded=0;fontSize=12;" edge="1" parent="WIyWlLk6GJQsqaUBKTNV-1">
          <mxGeometry width="50" height="50" relative="1" as="geometry">
            <mxPoint x="640" y="440" as="sourcePoint" />
            <mxPoint x="610" y="440" as="targetPoint" />
          </mxGeometry>
        </mxCell>
        <mxCell id="bEONo6mtb3YG_DYwx1t2-74" value="" style="endArrow=classic;html=1;rounded=0;fontSize=12;" edge="1" parent="WIyWlLk6GJQsqaUBKTNV-1">
          <mxGeometry width="50" height="50" relative="1" as="geometry">
            <mxPoint x="160" y="270" as="sourcePoint" />
            <mxPoint x="200" y="270" as="targetPoint" />
          </mxGeometry>
        </mxCell>
        <mxCell id="bEONo6mtb3YG_DYwx1t2-76" value="" style="endArrow=none;html=1;rounded=0;fontSize=12;exitX=0;exitY=0.8;exitDx=0;exitDy=0;exitPerimeter=0;fillColor=#d0cee2;strokeColor=#56517e;" edge="1" parent="WIyWlLk6GJQsqaUBKTNV-1" source="bEONo6mtb3YG_DYwx1t2-54">
          <mxGeometry width="50" height="50" relative="1" as="geometry">
            <mxPoint x="645" y="300" as="sourcePoint" />
            <mxPoint x="765" y="300" as="targetPoint" />
          </mxGeometry>
        </mxCell>
        <mxCell id="bEONo6mtb3YG_DYwx1t2-77" value="+Random() : void&amp;nbsp;" style="edgeLabel;html=1;align=left;verticalAlign=middle;resizable=0;points=[];fontSize=12;labelBackgroundColor=#C3ABD0;" vertex="1" connectable="0" parent="bEONo6mtb3YG_DYwx1t2-76">
          <mxGeometry x="0.6778" y="-5" relative="1" as="geometry">
            <mxPoint x="-95" y="5" as="offset" />
          </mxGeometry>
        </mxCell>
        <mxCell id="bEONo6mtb3YG_DYwx1t2-84" value="evet" style="text;html=1;strokeColor=none;fillColor=none;align=center;verticalAlign=middle;whiteSpace=wrap;rounded=0;labelBackgroundColor=#C3ABD0;fontSize=12;" vertex="1" parent="WIyWlLk6GJQsqaUBKTNV-1">
          <mxGeometry x="265" y="310" width="30" height="10" as="geometry" />
        </mxCell>
        <mxCell id="bEONo6mtb3YG_DYwx1t2-89" value="evet" style="text;html=1;align=center;verticalAlign=middle;whiteSpace=wrap;rounded=0;labelBackgroundColor=#C3ABD0;fontSize=12;fillColor=none;" vertex="1" parent="WIyWlLk6GJQsqaUBKTNV-1">
          <mxGeometry x="257.5" y="365" width="45" height="15" as="geometry" />
        </mxCell>
        <mxCell id="bEONo6mtb3YG_DYwx1t2-90" value="evet" style="text;html=1;fillColor=none;align=center;verticalAlign=middle;whiteSpace=wrap;rounded=0;labelBackgroundColor=#C3ABD0;fontSize=12;" vertex="1" parent="WIyWlLk6GJQsqaUBKTNV-1">
          <mxGeometry x="255" y="430" width="55" height="10" as="geometry" />
        </mxCell>
        <mxCell id="bEONo6mtb3YG_DYwx1t2-91" value="evet" style="text;html=1;align=center;verticalAlign=middle;whiteSpace=wrap;rounded=0;labelBackgroundColor=#C3ABD0;fontSize=12;" vertex="1" parent="WIyWlLk6GJQsqaUBKTNV-1">
          <mxGeometry x="270" y="245" width="20" height="10" as="geometry" />
        </mxCell>
      </root>
    </mxGraphModel>
  </diagram>
</mxfile>
